<svg width="55" height="38" viewBox="0 0 55 38" fill="none" xmlns="http://www.w3.org/2000/svg">
<g opacity="0.9">
<path d="M40.4768 29.5841C40.4768 38.842 35.4827 37.7979 27.5503 37.7979C19.6179 37.7979 14.1929 38.842 14.1929 29.5841C14.1929 20.3263 19.6179 17.3473 27.5503 17.3473C35.4827 17.3473 40.4768 20.3263 40.4768 29.5841Z" fill="white"/>
<path d="M11.1968 14.4509C13.5399 17.0765 13.6374 17.9095 11.0118 20.2526C8.38619 22.5957 6.92517 22.2964 4.58203 19.6709C2.2389 17.0453 0.664616 13.9434 3.2902 11.6002C5.91578 9.25711 8.85364 11.8253 11.1968 14.4509Z" fill="white"/>
<path d="M43.8032 15.5023C41.4601 18.1279 41.3626 18.9609 43.9882 21.304C46.6138 23.6472 48.0748 23.3479 50.418 20.7223C52.7611 18.0967 54.3354 14.9948 51.7098 12.6517C49.0842 10.3085 46.1464 12.8768 43.8032 15.5023Z" fill="white"/>
<path d="M23.9636 7.22789C24.6996 10.6691 24.3719 11.4411 20.9307 12.1771C17.4894 12.9131 16.3681 11.9298 15.6321 8.48852C14.8961 5.04726 15.064 1.57279 18.5052 0.836782C21.9465 0.100775 23.2276 3.78663 23.9636 7.22789Z" fill="white"/>
<path d="M30.843 7.22789C30.107 10.6691 30.4347 11.4411 33.876 12.1771C37.3172 12.9131 38.4385 11.9298 39.1745 8.48852C39.9105 5.04726 39.7427 1.57279 36.3014 0.836782C32.8602 0.100775 31.579 3.78663 30.843 7.22789Z" fill="white"/>
</g>
</svg>
